<svg xmlns="http://www.w3.org/2000/svg" shape-rendering="geometricPrecision" text-rendering="geometricPrecision" image-rendering="optimizeQuality" fill-rule="evenodd" clip-rule="evenodd" viewBox="0 0 512 493.03"><path fill="#0983E0" fill-rule="nonzero" d="M125.195 0h261.61C455.583 0 512 56.416 512 125.195v242.64c0 68.891-56.304 125.195-125.195 125.195h-261.61C56.416 493.03 0 436.614 0 367.835v-242.64C0 56.326 56.349 0 125.195 0z"/><path fill="#88DFF3" d="M125.195 18.969h261.61c58.432 0 106.225 47.816 106.225 106.226v242.64c0 58.409-47.816 106.225-106.225 106.225h-261.61c-58.41 0-106.226-47.793-106.226-106.225v-242.64c0-58.432 47.794-106.226 106.226-106.226z"/><path fill="#A3EDFD" d="M141.365 28.465h223.536c58.432 0 111.937 48.466 111.937 106.226v223.671c0 57.759-54.177 106.225-111.937 106.225H141.365c-57.76 0-106.225-47.794-106.225-106.225V134.691c0-58.432 47.793-106.226 106.225-106.226z"/><path fill="#E8FBFD" d="M309.448 28.465h55.453c58.432 0 111.937 48.376 111.937 106.226v36.729c-17.514-.313-9.765-39.215-22.419-66.695-24.927-54.154-81.589-61.388-144.971-76.26z"/><path fill="#fff" fill-rule="nonzero" d="M173.131 376.999c-12.603 0-18.916-6.313-18.916-18.916l2.129-27.042a31.025 31.025 0 012.08-7.741c2.443-5.152 6.096-10.788 8.998-15.771 24.818-38.58 49.49-75.589 72.663-115.355h-47.482c-2.274 0-4.475-.314-6.677-1.04-4.595-1.427-7.837-4.16-9.893-8.055-1.137-2.08-1.838-4.378-2.128-6.845-.726-10.232.435-23.124 2.225-33.574a35.84 35.84 0 012.129-6.773l3.773-6.385c1.693-2.371 3.846-4.475 6.241-6.241l7.087-4.016c2.564-1.088 5.563-1.958 8.926-2.466l9.07-.726h123.87c1.863 0 3.895.266 6.023.847l5.321 2.273c3.266 1.911 5.854 4.765 7.451 8.418l.604 1.62a20.32 20.32 0 011.137 6.725l-1.33 18.601c-.266 3.773-.944 7.402-1.863 10.739l-.193.653c-.992 3.411-2.322 6.507-3.943 9.265-25.132 41.87-51.377 84.539-77.549 125.684h54.618c1.839 0 3.895.29 5.975.87 1.741.46 3.459 1.21 5.08 2.129l.266.145c3.289 1.887 5.877 4.741 7.474 8.393a20.966 20.966 0 011.741 8.37l-1.379 20.584c-.314 4.378-1.136 8.515-2.418 12.239-1.452 4.282-3.532 8.104-6.144 11.442-3.556 4.547-8.49 7.813-14.731 9.724-4.741 1.451-10.328 2.225-16.618 2.225H173.131z"/><path fill="#0983E0" fill-rule="nonzero" d="M173.131 361.639c-2.371 0-3.556-1.185-3.556-3.556l.968-17.512c.217-1.959.531-4.378.967-7.305.435-2.927 1.403-5.345 2.927-7.305 3.676-6.7 8.103-13.933 13.304-21.721a4597.897 4597.897 0 0018.794-28.543c7.354-11.223 15.94-24.793 25.785-40.685 9.845-15.892 21.238-35.291 34.203-58.198h-73.92c-1.742 0-2.758-.338-3.097-.991-.314-.629-.483-1.839-.483-3.556l.967-18.166a71.723 71.723 0 011.137-8.272c.556-2.685 1.621-5.128 3.241-7.281 1.621-2.177 3.967-3.894 6.991-5.2 3.023-1.282 7.014-1.935 11.997-1.935h123.87c1.282 0 2.492.314 3.556.967 1.088.653 1.62 1.838 1.62 3.556l-1.281 17.512c-.436 5.636-1.742 10.281-3.895 13.957-.653 1.064-3.798 6.216-9.409 15.408a13998.052 13998.052 0 01-21.407 34.856 14925.488 14925.488 0 01-29.027 47.022 5648.655 5648.655 0 01-32.267 51.546h82.386c1.282 0 2.467.339 3.556.968 1.088.653 1.621 1.838 1.621 3.58l-1.307 19.133c-.411 6.483-2.201 11.732-5.345 15.722-3.121 3.992-9.555 5.999-19.279 5.999H173.131z"/></svg>